<svg width="18em" height="18em" xmlns="http://www.w3.org/2000/svg">
<rect x="0" y="0" width="100%" height="100%" fill="none" stroke="black" stroke-width="2" />
<polygon points="130,12 207,12 207,251 62,251 62,72" fill="rgb(128,128,255)" stroke-width="3" stroke="rgb(0,0,0)" />
<polygon points="130,12 130,72 62,72" fill="rgb(128,128,255)" stroke-linecap="round" stroke-width="3" stroke="rgb(0,0,0)" />
<line x1="147" y1="33" x2="194" y2="33" stroke-linecap="round" stroke-width="3" stroke="rgb(0,0,0)" />
<line x1="147" y1="53" x2="194" y2="53" stroke-linecap="round" stroke-width="3" stroke="rgb(0,0,0)" />
<line x1="147" y1="73" x2="194" y2="73" stroke-linecap="round" stroke-width="3" stroke="rgb(0,0,0)" />
<line x1="80" y1="93" x2="194" y2="93" stroke-linecap="round" stroke-width="3" stroke="rgb(0,0,0)" />
<line x1="80" y1="113" x2="194" y2="113" stroke-linecap="round" stroke-width="3" stroke="rgb(0,0,0)" />
<line x1="80" y1="133" x2="194" y2="133" stroke-linecap="round" stroke-width="3" stroke="rgb(0,0,0)" />
<line x1="80" y1="153" x2="194" y2="153" stroke-linecap="round" stroke-width="3" stroke="rgb(0,0,0)" />
<line x1="80" y1="173" x2="194" y2="173" stroke-linecap="round" stroke-width="3" stroke="rgb(0,0,0)" />
<line x1="80" y1="193" x2="194" y2="193" stroke-linecap="round" stroke-width="3" stroke="rgb(0,0,0)" />
<line x1="80" y1="213" x2="194" y2="213" stroke-linecap="round" stroke-width="3" stroke="rgb(0,0,0)" />
<line x1="80" y1="233" x2="194" y2="233" stroke-linecap="round" stroke-width="3" stroke="rgb(0,0,0)" />
</svg>

